<?xml version="1.0" encoding="UTF-8" ?>
<!DOCTYPE svg PUBLIC "-//W3C//DTD SVG 1.1//EN" "http://www.w3.org/Graphics/SVG/1.1/DTD/svg11.dtd">
<svg width="477pt" height="406pt" viewBox="0 0 477 406" version="1.1" xmlns="http://www.w3.org/2000/svg">
<g id="#1c1e52ff">
<path fill="#1c1e52" opacity="1.00" d=" M 0.00 0.00 L 477.00 0.00 L 477.00 406.00 L 0.00 406.00 L 0.00 0.00 M 64.19 133.40 C 66.31 136.48 70.41 137.46 73.41 139.56 C 100.03 155.24 127.24 170.11 153.49 186.31 C 153.85 209.55 153.50 232.82 153.65 256.07 C 153.47 260.15 156.76 263.12 160.05 264.90 C 167.14 268.97 175.18 270.96 183.03 272.99 C 217.45 279.96 252.85 280.58 287.78 278.08 C 306.09 276.10 324.85 274.21 341.94 266.85 C 346.26 264.68 352.18 261.73 351.67 256.01 C 351.69 231.67 351.61 207.32 351.70 182.98 C 360.37 178.04 368.97 172.98 377.62 168.02 C 377.83 186.51 377.67 204.99 377.71 223.48 C 369.72 226.83 366.70 236.90 371.47 244.12 C 368.40 253.63 364.34 262.84 362.03 272.58 C 368.35 277.31 375.96 280.78 383.99 280.61 C 391.04 280.30 397.32 276.57 402.82 272.43 C 400.24 263.79 396.97 255.38 394.04 246.86 C 392.30 243.16 395.81 239.74 395.55 236.00 C 395.74 229.56 390.44 224.58 384.62 222.87 C 384.56 203.23 384.58 183.60 384.61 163.96 C 401.88 153.77 419.53 144.22 436.53 133.61 C 387.12 105.12 337.65 76.76 288.32 48.14 C 287.04 58.70 288.06 69.38 287.69 79.99 C 287.91 82.72 286.83 86.53 289.84 88.09 C 316.05 103.41 342.57 118.25 368.76 133.62 C 342.60 149.72 315.48 164.37 289.12 180.18 C 287.50 181.18 287.78 183.34 287.70 184.97 C 287.78 196.51 287.63 208.06 287.80 219.60 C 303.42 211.58 318.17 201.94 333.64 193.63 C 333.63 209.76 333.93 225.91 333.50 242.03 C 330.62 248.79 322.30 250.80 315.89 252.95 C 293.18 259.24 269.41 259.78 246.00 259.61 C 225.23 259.08 203.99 257.95 184.30 250.69 C 179.75 248.64 173.40 245.91 173.41 240.05 C 173.40 225.92 173.38 211.79 173.44 197.66 C 186.61 204.68 199.23 212.69 212.35 219.82 C 212.44 206.84 212.37 193.87 212.38 180.89 C 185.53 164.88 158.04 149.92 131.41 133.57 C 158.24 117.89 185.50 102.87 212.13 86.88 C 212.72 73.99 212.27 61.03 212.34 48.11 C 162.86 76.36 113.53 104.93 64.19 133.40 M 277.20 56.15 C 258.23 97.53 238.89 138.74 220.01 180.15 C 218.99 192.84 219.63 205.77 219.72 218.54 C 222.55 214.18 224.45 209.34 226.65 204.65 C 243.40 168.42 260.14 132.18 276.92 95.96 C 278.74 91.80 281.45 87.74 281.30 83.02 C 281.16 71.79 281.51 60.55 281.08 49.33 C 279.58 51.48 278.28 53.76 277.20 56.15 M 72.58 315.50 C 70.38 326.15 70.15 337.19 67.09 347.64 C 65.56 336.93 64.25 326.18 62.42 315.51 C 59.07 315.51 55.71 315.51 52.36 315.56 C 55.64 333.76 58.49 352.04 61.87 370.21 C 64.76 372.07 70.11 372.05 73.04 370.17 C 74.48 362.83 74.25 355.10 76.92 348.04 C 78.80 355.69 79.19 363.60 80.72 371.32 C 84.25 371.31 87.77 371.31 91.30 371.32 C 94.74 352.78 98.07 334.20 100.85 315.55 C 97.69 315.85 93.94 314.70 91.13 316.15 C 88.75 326.14 88.65 336.65 86.00 346.63 C 83.64 336.43 82.55 325.96 81.23 315.58 C 78.34 315.53 75.46 315.51 72.58 315.50 M 252.31 315.51 C 252.62 334.12 251.84 352.82 252.36 371.36 C 255.71 371.31 259.06 371.31 262.41 371.29 C 262.48 363.33 262.44 355.37 262.44 347.41 C 267.99 347.30 273.55 347.64 279.09 347.20 C 279.38 344.06 279.37 340.89 279.10 337.75 C 273.57 337.24 268.00 337.61 262.46 337.52 C 262.45 333.48 262.45 329.44 262.43 325.41 C 267.86 325.39 273.30 325.36 278.73 325.42 C 279.22 322.15 279.31 318.83 279.13 315.53 C 270.19 315.49 261.25 315.52 252.31 315.51 M 302.51 315.55 C 302.59 334.14 302.36 352.72 302.47 371.31 C 311.49 371.30 320.51 371.38 329.53 371.25 C 329.53 367.99 329.53 364.73 329.52 361.47 C 323.89 361.45 318.26 361.47 312.63 361.41 C 312.61 346.11 312.64 330.81 312.62 315.51 C 309.25 315.51 305.87 315.51 302.51 315.55 M 360.18 314.84 C 353.55 316.64 348.29 323.03 348.43 330.00 C 348.41 338.66 348.46 347.33 348.41 355.99 C 347.92 364.80 356.24 372.94 365.03 372.36 C 373.46 372.19 380.48 364.31 380.44 356.02 C 380.45 346.99 380.50 337.96 380.25 328.94 C 379.48 319.46 369.46 312.12 360.18 314.84 M 417.73 315.58 C 416.51 325.01 414.97 334.40 413.74 343.83 C 413.22 343.77 412.20 343.65 411.68 343.59 C 411.00 334.20 408.75 325.00 408.18 315.60 C 404.83 315.51 401.48 315.50 398.14 315.53 C 400.62 334.23 404.07 352.83 407.55 371.37 C 411.11 371.32 414.69 371.31 418.26 371.16 C 419.41 363.17 420.10 355.09 421.96 347.23 C 424.04 354.95 424.67 362.98 425.73 370.89 C 429.53 371.49 433.42 371.47 437.20 370.73 C 439.73 352.27 443.31 333.94 446.54 315.58 C 443.17 315.51 439.80 315.50 436.44 315.50 C 434.27 326.37 433.84 337.54 430.95 348.27 C 429.59 337.32 427.98 326.40 426.28 315.51 C 423.43 315.51 420.58 315.53 417.73 315.58 M 121.33 371.27 C 129.92 371.24 138.52 371.54 147.10 371.17 C 149.78 369.03 147.80 364.62 148.39 361.56 C 142.77 361.39 137.14 361.45 131.51 361.46 C 131.45 356.78 131.46 352.10 131.45 347.42 C 137.11 347.38 142.77 347.42 148.43 347.36 C 148.41 344.06 148.33 340.76 147.79 337.50 C 142.35 337.52 136.91 337.52 131.48 337.51 C 131.47 333.48 131.47 329.44 131.45 325.41 C 136.86 325.38 142.26 325.36 147.67 325.43 C 148.45 322.17 148.51 318.78 147.85 315.50 C 139.04 315.53 130.23 315.51 121.42 315.51 C 121.37 334.10 121.32 352.68 121.33 371.27 M 170.71 362.99 C 171.00 365.64 169.61 369.21 171.93 371.15 C 180.30 370.93 190.34 373.50 197.13 367.13 C 204.31 361.24 204.58 349.60 198.45 342.86 C 205.21 336.07 204.88 323.95 196.75 318.42 C 189.36 313.17 179.76 316.40 171.36 315.50 C 170.94 331.33 171.99 347.20 170.71 362.99 Z" />
<path fill="#1c1e52" opacity="1.00" d=" M 358.61 329.90 C 358.67 325.71 362.95 323.91 366.59 324.23 C 368.29 326.15 370.18 328.20 369.77 330.99 C 369.57 340.34 370.26 349.75 369.42 359.06 C 367.18 364.48 359.07 362.62 358.64 357.10 C 358.43 348.04 358.49 338.96 358.61 329.90 Z" />
<path fill="#1c1e52" opacity="1.00" d=" M 181.37 325.35 C 184.08 325.41 186.83 325.17 189.50 325.72 C 194.04 327.78 193.97 335.35 189.31 337.24 C 186.70 337.72 184.03 337.49 181.39 337.56 C 181.37 333.48 181.37 329.42 181.37 325.35 Z" />
<path fill="#1c1e52" opacity="1.00" d=" M 181.39 347.30 C 186.36 346.43 193.37 348.79 192.61 354.95 C 192.51 360.68 186.04 362.22 181.40 361.54 C 181.36 356.79 181.36 352.05 181.39 347.30 Z" />
</g>
<g id="#ffffffff">
<path fill="#ffffff" opacity="1.00" d=" M 64.19 133.40 C 113.53 104.93 162.86 76.36 212.34 48.11 C 212.27 61.03 212.72 73.99 212.13 86.88 C 185.50 102.87 158.24 117.89 131.41 133.57 C 158.04 149.92 185.53 164.88 212.38 180.89 C 212.37 193.87 212.44 206.84 212.35 219.82 C 199.23 212.69 186.61 204.68 173.44 197.66 C 173.38 211.79 173.40 225.92 173.41 240.05 C 173.40 245.91 179.75 248.64 184.30 250.69 C 203.99 257.95 225.23 259.08 246.00 259.61 C 269.41 259.78 293.18 259.24 315.89 252.95 C 322.30 250.80 330.62 248.79 333.50 242.03 C 333.93 225.91 333.63 209.76 333.64 193.63 C 318.17 201.94 303.42 211.58 287.80 219.60 C 287.63 208.06 287.78 196.51 287.70 184.97 C 287.78 183.34 287.50 181.18 289.12 180.18 C 315.48 164.37 342.60 149.72 368.76 133.62 C 342.57 118.25 316.05 103.41 289.84 88.09 C 286.83 86.53 287.91 82.72 287.69 79.99 C 288.06 69.38 287.04 58.70 288.32 48.14 C 337.65 76.76 387.12 105.12 436.53 133.61 C 419.53 144.22 401.88 153.77 384.61 163.96 C 384.58 183.60 384.56 203.23 384.62 222.87 C 390.44 224.58 395.74 229.56 395.55 236.00 C 395.81 239.74 392.30 243.16 394.04 246.86 C 396.97 255.38 400.24 263.79 402.82 272.43 C 397.32 276.57 391.04 280.30 383.99 280.61 C 375.96 280.78 368.35 277.31 362.03 272.58 C 364.34 262.84 368.40 253.63 371.47 244.12 C 366.70 236.90 369.72 226.83 377.71 223.48 C 377.67 204.99 377.83 186.51 377.62 168.02 C 368.97 172.98 360.37 178.04 351.70 182.98 C 351.61 207.32 351.69 231.67 351.67 256.01 C 352.18 261.73 346.26 264.68 341.94 266.85 C 324.85 274.21 306.09 276.10 287.78 278.08 C 252.85 280.58 217.45 279.96 183.03 272.99 C 175.18 270.96 167.14 268.97 160.05 264.90 C 156.76 263.12 153.47 260.15 153.65 256.07 C 153.50 232.82 153.85 209.55 153.49 186.31 C 127.24 170.11 100.03 155.24 73.41 139.56 C 70.41 137.46 66.31 136.48 64.19 133.40 Z" />
<path fill="#ffffff" opacity="1.00" d=" M 277.20 56.15 C 278.28 53.76 279.58 51.48 281.08 49.33 C 281.51 60.55 281.16 71.79 281.30 83.02 C 281.45 87.74 278.74 91.80 276.92 95.96 C 260.14 132.18 243.40 168.42 226.65 204.65 C 224.45 209.34 222.55 214.18 219.72 218.54 C 219.63 205.77 218.99 192.84 220.01 180.15 C 238.89 138.74 258.23 97.53 277.20 56.15 Z" />
<path fill="#ffffff" opacity="1.00" d=" M 72.58 315.50 C 75.46 315.51 78.34 315.53 81.23 315.58 C 82.55 325.96 83.64 336.43 86.00 346.63 C 88.65 336.65 88.75 326.14 91.13 316.15 C 93.94 314.70 97.69 315.85 100.85 315.55 C 98.07 334.20 94.74 352.78 91.30 371.32 C 87.77 371.31 84.25 371.31 80.72 371.32 C 79.19 363.60 78.80 355.69 76.92 348.04 C 74.25 355.10 74.48 362.83 73.04 370.17 C 70.11 372.05 64.76 372.07 61.87 370.21 C 58.49 352.04 55.64 333.76 52.36 315.56 C 55.71 315.51 59.07 315.51 62.42 315.51 C 64.25 326.18 65.56 336.93 67.09 347.64 C 70.15 337.19 70.38 326.15 72.58 315.50 Z" />
<path fill="#ffffff" opacity="1.00" d=" M 252.31 315.51 C 261.25 315.52 270.19 315.49 279.13 315.53 C 279.31 318.83 279.22 322.15 278.73 325.42 C 273.30 325.36 267.86 325.39 262.43 325.41 C 262.45 329.44 262.45 333.48 262.46 337.52 C 268.00 337.61 273.57 337.24 279.10 337.75 C 279.37 340.89 279.38 344.06 279.09 347.20 C 273.55 347.64 267.99 347.30 262.44 347.41 C 262.44 355.37 262.48 363.33 262.41 371.29 C 259.06 371.31 255.71 371.31 252.36 371.36 C 251.84 352.82 252.62 334.12 252.31 315.51 Z" />
<path fill="#ffffff" opacity="1.00" d=" M 302.51 315.55 C 305.87 315.51 309.25 315.51 312.62 315.51 C 312.64 330.81 312.61 346.11 312.63 361.41 C 318.26 361.47 323.89 361.45 329.52 361.47 C 329.53 364.73 329.53 367.99 329.53 371.25 C 320.51 371.38 311.49 371.30 302.47 371.31 C 302.36 352.72 302.59 334.14 302.51 315.55 Z" />
<path fill="#ffffff" opacity="1.00" d=" M 360.18 314.84 C 369.46 312.12 379.48 319.46 380.25 328.94 C 380.50 337.96 380.45 346.99 380.44 356.02 C 380.48 364.31 373.46 372.19 365.03 372.36 C 356.24 372.94 347.92 364.80 348.41 355.99 C 348.46 347.33 348.41 338.66 348.43 330.00 C 348.29 323.03 353.55 316.64 360.18 314.84 M 358.61 329.90 C 358.49 338.96 358.43 348.04 358.64 357.10 C 359.07 362.62 367.18 364.48 369.42 359.06 C 370.26 349.75 369.57 340.34 369.77 330.99 C 370.18 328.20 368.29 326.15 366.59 324.23 C 362.95 323.91 358.67 325.71 358.61 329.90 Z" />
<path fill="#ffffff" opacity="1.00" d=" M 417.73 315.58 C 420.58 315.53 423.43 315.51 426.28 315.51 C 427.98 326.40 429.59 337.32 430.95 348.27 C 433.84 337.54 434.27 326.37 436.44 315.50 C 439.80 315.50 443.17 315.51 446.54 315.58 C 443.31 333.94 439.73 352.27 437.20 370.73 C 433.42 371.47 429.53 371.49 425.73 370.89 C 424.67 362.98 424.04 354.95 421.96 347.23 C 420.10 355.09 419.41 363.17 418.26 371.16 C 414.69 371.31 411.11 371.32 407.55 371.37 C 404.07 352.83 400.62 334.23 398.14 315.53 C 401.48 315.50 404.83 315.51 408.18 315.60 C 408.75 325.00 411.00 334.20 411.68 343.59 C 412.20 343.65 413.22 343.77 413.74 343.83 C 414.97 334.40 416.51 325.01 417.73 315.58 Z" />
<path fill="#ffffff" opacity="1.00" d=" M 121.33 371.27 C 121.32 352.68 121.37 334.10 121.42 315.51 C 130.23 315.51 139.04 315.53 147.85 315.50 C 148.51 318.78 148.45 322.17 147.67 325.43 C 142.26 325.36 136.86 325.38 131.45 325.41 C 131.47 329.44 131.47 333.48 131.48 337.51 C 136.91 337.52 142.35 337.52 147.79 337.50 C 148.33 340.76 148.41 344.06 148.43 347.36 C 142.77 347.42 137.11 347.38 131.45 347.42 C 131.46 352.10 131.45 356.78 131.51 361.46 C 137.14 361.45 142.77 361.39 148.39 361.56 C 147.80 364.62 149.78 369.03 147.10 371.17 C 138.52 371.54 129.92 371.24 121.33 371.27 Z" />
<path fill="#ffffff" opacity="1.00" d=" M 170.71 362.99 C 171.99 347.20 170.94 331.33 171.36 315.50 C 179.76 316.40 189.36 313.17 196.75 318.42 C 204.88 323.95 205.21 336.07 198.45 342.86 C 204.58 349.60 204.31 361.24 197.13 367.13 C 190.34 373.50 180.30 370.93 171.93 371.15 C 169.61 369.21 171.00 365.64 170.71 362.99 M 181.37 325.35 C 181.37 329.42 181.37 333.48 181.39 337.56 C 184.03 337.49 186.70 337.72 189.31 337.24 C 193.97 335.35 194.04 327.78 189.50 325.72 C 186.83 325.17 184.08 325.41 181.37 325.35 M 181.39 347.30 C 181.36 352.05 181.36 356.79 181.40 361.54 C 186.04 362.22 192.51 360.68 192.61 354.95 C 193.37 348.79 186.36 346.43 181.39 347.30 Z" />
</g>
</svg>
