<?xml version="1.0" encoding="UTF-8" ?>
<!DOCTYPE svg PUBLIC "-//W3C//DTD SVG 1.1//EN" "http://www.w3.org/Graphics/SVG/1.1/DTD/svg11.dtd">
<svg width="500pt" height="500pt" viewBox="0 0 500 500" version="1.1" xmlns="http://www.w3.org/2000/svg">
<g id="#fdfefeff">
<path fill="#fdfefe" opacity="1.00" d=" M 375.49 114.54 C 394.51 95.56 413.38 76.42 432.58 57.63 C 432.89 115.94 432.83 174.27 432.61 232.58 C 374.32 232.75 316.01 232.94 257.73 232.54 C 275.66 213.88 294.33 195.93 312.48 177.48 C 313.88 176.30 315.00 174.27 317.06 174.32 C 335.79 174.11 354.53 174.37 373.25 174.23 C 373.49 173.99 373.97 173.50 374.21 173.26 C 374.29 155.16 374.17 137.05 374.25 118.95 C 374.30 117.41 374.09 115.58 375.49 114.54 Z" />
<path fill="#fdfefe" opacity="1.00" d=" M 111.43 89.50 C 117.96 87.08 120.83 96.30 115.85 99.85 C 109.35 101.75 105.11 92.49 111.43 89.50 Z" />
<path fill="#fdfefe" opacity="1.00" d=" M 230.37 89.49 C 233.92 88.17 238.42 90.93 237.69 94.96 C 237.81 99.26 231.51 101.53 228.85 98.22 C 227.42 95.53 227.37 91.09 230.37 89.49 Z" />
<path fill="#fdfefe" opacity="1.00" d=" M 107.22 105.29 C 111.39 105.64 115.58 105.65 119.76 105.31 C 122.80 108.06 125.31 111.46 126.03 115.59 C 117.33 115.79 108.63 115.80 99.94 115.53 C 101.52 111.58 104.11 108.17 107.22 105.29 Z" />
<path fill="#fdfefe" opacity="1.00" d=" M 226.28 105.36 C 230.70 105.65 235.15 105.63 239.58 105.42 C 242.28 108.27 244.45 111.59 245.99 115.20 C 237.05 116.06 227.98 116.00 219.04 115.22 C 220.92 111.57 223.33 108.22 226.28 105.36 Z" />
<path fill="#fdfefe" opacity="1.00" d=" M 172.37 168.41 C 180.36 167.08 182.32 179.72 174.84 181.62 C 166.93 183.00 164.22 169.93 172.37 168.41 Z" />
<path fill="#fdfefe" opacity="1.00" d=" M 166.49 187.66 C 169.72 187.82 172.94 189.25 176.18 188.24 C 183.79 185.63 187.14 195.36 189.96 200.58 C 179.01 200.77 168.05 200.88 157.10 200.55 C 159.35 195.73 161.47 190.24 166.49 187.66 Z" />
<path fill="#fdfefe" opacity="1.00" d=" M 308.63 342.77 C 312.04 340.16 317.25 342.13 321.38 341.54 C 321.30 377.26 321.25 412.98 321.38 448.69 C 317.14 448.61 312.90 448.72 308.67 448.50 C 308.54 413.26 308.50 378.01 308.63 342.77 Z" />
<path fill="#fdfefe" opacity="1.00" d=" M 345.23 342.42 C 372.62 341.97 400.02 341.53 427.40 342.55 C 427.44 345.85 427.67 349.25 426.36 352.38 C 415.43 352.97 404.42 352.24 393.52 352.93 C 392.56 353.15 391.60 353.38 390.65 353.63 C 390.51 385.63 390.68 417.63 390.52 449.63 C 386.54 449.80 382.56 449.70 378.59 449.43 C 378.18 417.18 378.60 384.91 378.47 352.65 C 367.42 352.56 356.35 352.83 345.32 352.49 C 344.17 349.58 344.29 345.41 345.23 342.42 Z" />
<path fill="#fdfefe" opacity="1.00" d=" M 62.40 349.24 C 62.38 347.39 62.44 344.54 64.96 344.61 C 77.97 344.61 91.02 344.17 104.00 344.75 C 107.31 344.83 107.86 347.71 106.95 350.34 C 102.07 350.24 98.75 355.53 101.02 359.88 C 110.70 382.68 119.81 405.75 129.95 428.35 C 135.46 419.54 140.22 410.30 145.13 401.16 C 146.41 399.12 144.96 396.82 144.26 394.85 C 139.22 383.44 134.94 371.68 129.57 360.42 C 126.66 354.33 120.35 351.51 114.34 349.41 C 114.39 348.49 114.49 346.66 114.54 345.74 C 123.42 343.38 132.88 345.20 142.00 344.62 C 146.16 344.59 154.35 343.62 152.70 350.19 C 147.80 350.37 144.92 355.52 146.98 359.89 C 156.50 382.59 166.52 405.09 175.38 428.08 C 177.87 426.96 178.73 424.18 180.02 422.01 C 190.49 402.51 201.17 383.14 211.71 363.68 C 213.39 360.89 214.12 357.28 212.83 354.23 C 210.89 350.42 206.09 350.43 202.52 349.26 C 202.01 346.83 202.87 343.92 205.97 344.53 C 217.46 345.08 229.30 343.10 240.56 345.71 C 240.51 347.25 240.48 348.79 240.45 350.34 C 236.58 350.50 232.82 351.54 229.19 352.86 C 224.37 353.89 221.20 357.89 218.97 362.00 C 203.58 390.92 188.03 419.77 172.21 448.46 C 170.67 448.53 169.14 448.60 167.60 448.68 C 160.99 437.74 157.57 425.07 151.99 413.54 C 152.26 410.77 148.66 407.19 146.82 410.63 C 140.00 423.26 132.84 435.70 126.27 448.46 C 124.73 448.50 123.20 448.54 121.67 448.59 C 117.69 443.84 116.30 437.67 113.80 432.13 C 104.09 409.45 94.63 386.65 85.27 363.83 C 83.30 358.63 79.39 354.12 74.36 351.71 C 70.48 350.41 66.29 350.53 62.40 349.24 Z" />
<path fill="#fdfefe" opacity="1.00" d=" M 160.17 349.50 C 160.19 347.43 159.96 344.34 162.94 344.59 C 173.48 344.97 184.33 343.22 194.65 345.76 C 194.61 347.28 194.56 348.79 194.49 350.31 C 187.78 349.76 182.06 353.24 177.61 357.89 C 176.56 358.46 175.87 359.46 175.73 360.65 C 173.26 367.24 169.17 373.14 166.00 379.42 C 164.55 379.38 163.09 379.34 161.64 379.34 C 160.89 377.92 160.17 376.48 159.46 375.04 C 162.18 368.49 168.35 362.62 167.20 355.07 C 165.90 352.16 162.77 350.96 160.17 349.50 Z" />
</g>
<g id="#6ce5e8ff">
<path fill="#6ce5e8" opacity="1.00" d=" M 84.66 85.66 C 90.57 76.11 101.80 70.11 113.00 70.34 C 130.34 69.20 147.09 83.63 148.57 100.95 C 150.47 114.07 144.46 126.82 134.24 134.88 C 138.56 141.52 144.93 146.31 150.12 152.20 C 162.77 144.67 178.99 142.78 192.33 149.67 C 194.34 150.29 196.91 153.14 198.78 150.87 C 203.06 145.19 209.22 141.13 212.96 135.02 C 204.74 127.96 197.58 118.37 198.17 106.97 C 196.27 88.10 213.12 70.01 231.99 70.33 C 246.47 69.11 260.30 79.04 265.74 92.16 C 270.58 103.31 268.79 116.84 261.56 126.55 C 251.96 140.12 232.46 144.74 217.62 137.44 C 212.25 143.38 207.96 150.24 202.36 156.01 C 216.47 168.49 220.95 190.52 212.29 207.32 C 205.08 222.66 187.94 232.73 170.99 230.99 C 149.42 230.58 130.69 210.42 131.31 188.99 C 130.82 177.50 135.59 165.80 143.91 157.88 C 145.92 156.19 143.62 153.94 142.41 152.57 C 137.49 148.01 134.61 141.69 129.32 137.46 C 117.57 142.94 102.59 141.97 92.35 133.68 C 77.52 123.08 74.05 100.38 84.66 85.66 M 110.29 75.25 C 95.49 76.51 83.04 90.16 83.38 105.00 C 82.39 119.29 93.54 132.71 107.29 135.78 C 123.58 139.64 141.05 127.31 143.84 110.99 C 148.04 91.88 129.63 72.26 110.29 75.25 M 229.36 75.39 C 213.90 76.69 201.88 91.79 202.52 107.00 C 202.97 124.34 220.45 139.37 237.70 135.84 C 252.31 133.96 264.81 119.98 263.48 105.01 C 264.25 87.48 246.53 72.51 229.36 75.39 M 165.34 152.38 C 155.79 154.74 147.25 160.82 142.26 169.33 C 132.03 184.86 136.68 207.62 151.93 218.16 C 166.06 229.08 188.08 227.38 200.18 214.17 C 211.42 204.12 213.35 186.75 207.75 173.29 C 200.78 157.53 182.11 148.16 165.34 152.38 Z" />
<path fill="#6ce5e8" opacity="1.00" d=" M 105.49 87.45 C 109.43 82.74 117.65 82.54 121.44 87.53 C 124.49 91.06 124.07 96.26 122.42 100.32 C 128.04 105.62 133.14 112.72 132.83 120.79 C 122.28 122.01 111.61 121.10 101.01 121.36 C 98.50 121.20 94.90 121.81 93.52 119.13 C 94.80 111.81 98.94 105.31 104.43 100.41 C 102.68 96.32 102.31 90.96 105.49 87.45 M 111.43 89.50 C 105.11 92.49 109.35 101.75 115.85 99.85 C 120.83 96.30 117.96 87.08 111.43 89.50 M 107.22 105.29 C 104.11 108.17 101.52 111.58 99.94 115.53 C 108.63 115.80 117.33 115.79 126.03 115.59 C 125.31 111.46 122.80 108.06 119.76 105.31 C 115.58 105.65 111.39 105.64 107.22 105.29 Z" />
<path fill="#6ce5e8" opacity="1.00" d=" M 224.31 88.34 C 228.54 81.21 240.82 83.23 242.75 91.29 C 245.14 95.07 239.68 100.10 244.01 102.98 C 248.73 107.06 251.53 113.01 252.55 119.09 C 251.30 122.03 247.51 121.13 244.99 121.33 C 234.44 121.00 223.71 122.30 213.29 120.44 C 213.43 112.71 218.04 105.54 223.73 100.57 C 222.14 96.63 221.59 91.94 224.31 88.34 M 230.37 89.49 C 227.37 91.09 227.42 95.53 228.85 98.22 C 231.51 101.53 237.81 99.26 237.69 94.96 C 238.42 90.93 233.92 88.17 230.37 89.49 M 226.28 105.36 C 223.33 108.22 220.92 111.57 219.04 115.22 C 227.98 116.00 237.05 116.06 245.99 115.20 C 244.45 111.59 242.28 108.27 239.58 105.42 C 235.15 105.63 230.70 105.65 226.28 105.36 Z" />
<path fill="#6ce5e8" opacity="1.00" d=" M 164.93 164.96 C 171.31 159.85 183.37 161.77 185.51 170.53 C 187.64 174.49 185.18 178.52 184.52 182.43 C 190.78 188.17 196.05 195.45 197.38 204.02 C 196.82 208.64 191.27 207.44 188.00 207.63 C 175.43 207.18 162.71 208.57 150.24 206.75 C 148.84 197.04 155.93 188.51 162.58 182.25 C 160.03 176.67 159.96 169.25 164.93 164.96 M 172.37 168.41 C 164.22 169.93 166.93 183.00 174.84 181.62 C 182.32 179.72 180.36 167.08 172.37 168.41 M 166.49 187.66 C 161.47 190.24 159.35 195.73 157.10 200.55 C 168.05 200.88 179.01 200.77 189.96 200.58 C 187.14 195.36 183.79 185.63 176.18 188.24 C 172.94 189.25 169.72 187.82 166.49 187.66 Z" />
<path fill="#6ce5e8" opacity="1.00" d=" M 125.69 262.52 C 138.09 261.53 150.58 261.40 162.99 262.24 C 169.32 262.21 175.73 260.88 181.97 262.51 C 162.35 280.95 143.89 300.75 124.64 319.47 C 106.04 319.77 87.39 319.80 68.79 319.49 C 87.58 300.33 106.72 281.50 125.69 262.52 Z" />
<path fill="#6ce5e8" opacity="1.00" d=" M 226.09 264.07 C 228.58 261.33 232.65 261.84 236.00 261.74 C 287.99 261.99 340.03 261.42 392.00 262.09 C 405.48 261.83 419.12 260.98 432.54 262.55 C 432.66 281.55 432.79 300.55 432.57 319.55 C 345.29 319.76 258.00 319.67 170.72 319.59 C 189.00 300.91 208.05 282.98 226.09 264.07 Z" />
<path fill="#6ce5e8" opacity="1.00" d=" M 321.38 341.54 C 321.88 341.85 322.90 342.48 323.41 342.80 C 323.27 377.87 323.69 412.96 323.24 448.03 C 322.78 448.19 321.85 448.53 321.38 448.69 C 321.25 412.98 321.30 377.26 321.38 341.54 Z" />
<path fill="#6ce5e8" opacity="1.00" d=" M 218.97 362.00 C 221.20 357.89 224.37 353.89 229.19 352.86 C 226.39 355.57 223.63 358.39 221.85 361.90 C 205.87 390.73 190.54 419.93 174.59 448.76 C 172.26 448.79 169.93 448.74 167.60 448.68 C 169.14 448.60 170.67 448.53 172.21 448.46 C 188.03 419.77 203.58 390.92 218.97 362.00 Z" />
<path fill="#6ce5e8" opacity="1.00" d=" M 390.65 353.63 C 391.60 353.38 392.56 353.15 393.52 352.93 C 393.70 384.84 393.67 416.75 393.56 448.66 C 392.54 448.98 391.53 449.31 390.52 449.63 C 390.68 417.63 390.51 385.63 390.65 353.63 Z" />
<path fill="#6ce5e8" opacity="1.00" d=" M 223.22 414.22 C 229.26 412.29 227.40 402.46 234.51 403.33 C 235.30 405.80 235.46 408.40 235.52 410.98 C 238.25 411.18 241.00 411.06 243.72 411.48 C 245.04 413.00 244.06 415.52 244.39 417.43 C 241.39 417.50 238.39 417.49 235.40 417.53 C 235.24 423.50 235.11 429.50 235.60 435.47 C 238.44 436.67 241.54 436.55 244.56 436.61 C 244.23 438.57 245.12 441.76 242.61 442.51 C 237.55 443.18 230.25 444.04 227.87 438.20 C 226.39 431.45 228.03 424.41 226.75 417.62 C 225.59 417.41 224.43 417.20 223.28 417.00 C 223.26 416.30 223.24 414.92 223.22 414.22 Z" />
<path fill="#6ce5e8" opacity="1.00" d=" M 146.82 410.63 C 148.66 407.19 152.26 410.77 151.99 413.54 L 152.05 413.75 C 151.36 412.48 150.68 411.21 150.03 409.94 C 142.70 421.87 136.75 434.59 129.68 446.66 C 128.32 449.92 124.39 448.49 121.67 448.59 C 123.20 448.54 124.73 448.50 126.27 448.46 C 132.84 435.70 140.00 423.26 146.82 410.63 Z" />
<path fill="#6ce5e8" opacity="1.00" d=" M 260.28 411.33 C 266.19 409.85 273.54 411.61 276.91 417.02 C 280.84 423.78 280.84 433.34 275.12 439.12 C 271.07 443.61 264.25 443.49 258.84 442.17 C 245.64 437.45 246.05 414.30 260.28 411.33 M 262.37 417.47 C 256.55 419.48 257.12 427.63 258.56 432.46 C 259.95 438.40 269.89 437.84 270.88 431.91 C 273.06 425.87 270.85 415.12 262.37 417.47 Z" />
</g>
<g id="#7d9f9f96">
<path fill="#7d9f9f" opacity="0.59" d=" M 175.73 360.65 C 175.87 359.46 176.56 358.46 177.61 357.89 C 178.82 358.96 177.20 361.54 175.73 360.65 Z" />
</g>
</svg>
