<svg fill="#fcd980" id="Layer_1" data-name="Layer 1" xmlns="http://www.w3.org/2000/svg"
  viewBox="0 0 64 64">
  <path
    d="M30.18,62.79A29,29,0,0,1,9.12,53.85,28,28,0,0,1,1.74,35.59C1,15.94,15.33,10.09,19.75,8.77A27.78,27.78,0,0,1,40.49,11a15,15,0,0,1,4.65,4.07.76.76,0,0,1-.16,1,.75.75,0,0,1-1-.17,13.66,13.66,0,0,0-4.2-3.66A26.24,26.24,0,0,0,20.18,10.2C16,11.45,2.5,17,3.23,35.54a26.54,26.54,0,0,0,7,17.28A27.72,27.72,0,0,0,47.1,55.51c6.16-4.81,9-9.77,7.63-13.28-.86-2.17-3.28-3.41-6.19-3.15s-4.83-.33-5.71-1.75c-1.46-2.37.73-6,.82-6.13S46.71,26,45.84,20.6a.76.76,0,0,1,.62-.86.74.74,0,0,1,.86.62c1,5.9-2.25,11.38-2.38,11.61-.51.84-1.65,3.26-.83,4.57.69,1.12,2.72,1.19,4.29,1.05,3.59-.32,6.62,1.29,7.72,4.09.79,2,1.58,7.45-8.09,15A29,29,0,0,1,30.18,62.79Z" />
  <path
    d="M25,23.13a5.25,5.25,0,1,1,5.25-5.24A5.25,5.25,0,0,1,25,23.13Zm0-9a3.75,3.75,0,1,0,3.75,3.75A3.75,3.75,0,0,0,25,14.14Z" />
  <path
    d="M12.56,32.18a5.09,5.09,0,1,1,5.09-5.09A5.09,5.09,0,0,1,12.56,32.18Zm0-8.67a3.59,3.59,0,1,0,3.59,3.58A3.59,3.59,0,0,0,12.56,23.51Z" />
  <path
    d="M14.49,47.49a5.09,5.09,0,1,1,5.09-5.09A5.09,5.09,0,0,1,14.49,47.49Zm0-8.67a3.59,3.59,0,1,0,3.59,3.58A3.58,3.58,0,0,0,14.49,38.82Z" />
  <path
    d="M26.07,57A4.91,4.91,0,1,1,31,52.12,4.91,4.91,0,0,1,26.07,57Zm0-8.32a3.41,3.41,0,1,0,3.41,3.41A3.41,3.41,0,0,0,26.07,48.71Z" />
  <path
    d="M39.66,53.82a4.91,4.91,0,1,1,4.91-4.91A4.92,4.92,0,0,1,39.66,53.82Zm0-8.32a3.41,3.41,0,1,0,3.41,3.41A3.41,3.41,0,0,0,39.66,45.5Z" />
  <path
    d="M44.15,23.75a.77.77,0,0,1-.53-.22L40,19.92a.7.7,0,0,1-.22-.54.72.72,0,0,1,.23-.53L57.42,2.06a2.87,2.87,0,0,1,4.07,4.06l-16.8,17.4a.76.76,0,0,1-.53.23ZM41.62,19.4l2.52,2.53L60.41,5.08a1.38,1.38,0,0,0-1.95-1.94Z" />
  <path
    d="M40.54,26.85a.74.74,0,0,1-.53-.22l-3.1-3.1a.75.75,0,0,1,0-1L40,18.9a.75.75,0,0,1,1.1,0l3.6,3.61a.75.75,0,0,1,0,1.1L41,26.67A.74.74,0,0,1,40.54,26.85ZM38.46,23l2.12,2.12L43.05,23l-2.46-2.47Z" />
  <path
    d="M30.57,34.55A13.22,13.22,0,0,1,26.69,34,.75.75,0,0,1,27,32.54c1.4.13,3.24-2,4-3.55a12.35,12.35,0,0,0,.7-2c.49-1.69,1-3.61,2.95-4.53a3.94,3.94,0,0,1,3.05-.13.75.75,0,0,1-.54,1.4,2.41,2.41,0,0,0-1.86.09c-1.3.62-1.72,2.06-2.15,3.59a12.87,12.87,0,0,1-.81,2.28A10.83,10.83,0,0,1,29.7,33,10.31,10.31,0,0,0,38,30c2-2.45,1.88-3.89,1.88-3.9a.75.75,0,0,1,1.48-.23c0,.2.27,2.09-2.24,5.13A11.66,11.66,0,0,1,30.57,34.55Z" />
</svg>